<?xml version="1.0"?>
<svg xmlns="http://www.w3.org/2000/svg" height="512px" viewBox="0 0 512 512" width="512px"><g><path d="m497 482h-4.804688v-281.191406h4.804688c8.285156 0 15-6.714844 15-15s-6.714844-15-15-15h-195.949219v-140.808594h5.785157c8.285156 0 15-6.714844 15-15s-6.714844-15-15-15h-291.835938c-8.285156 0-15 6.714844-15 15s6.714844 15 15 15h6.050781v452h-6.050781c-8.285156 0-15 6.714844-15 15s6.714844 15 15 15h482c8.285156 0 15-6.714844 15-15s-6.714844-15-15-15zm-259.214844 0v-65.589844c0-8.285156-6.714844-15-15-15-8.28125 0-15 6.714844-15 15v65.589844h-32v-65.589844c0-8.285156-6.714844-15-15-15-8.28125 0-15 6.714844-15 15v65.589844h-32v-65.589844c0-8.285156-6.714844-15-15-15-8.28125 0-15 6.714844-15 15v65.589844h-32.734375v-452h220v452zm189.835938 0v-59.269531c0-8.285157-6.714844-15-15-15-8.28125 0-15 6.714843-15 15v59.269531h-32v-59.269531c0-8.285157-6.714844-15-15-15-8.28125 0-15 6.714843-15 15v59.269531h-34.570313v-280.5h161.144531v280.5zm0 0" data-original="#000000" class="active-path" data-old_color="#000000" fill="##49505"/><path d="m161.050781 60.789062c-8.285156 0-15 6.714844-15 15v25.230469c0 8.285157 6.714844 15 15 15 8.285157 0 15-6.714843 15-15v-25.230469c0-8.285156-6.714843-15-15-15zm0 0" data-original="#000000" class="active-path" data-old_color="#000000" fill="##49505"/><path d="m99.050781 60.789062c-8.285156 0-15 6.714844-15 15v25.230469c0 8.285157 6.714844 15 15 15 8.285157 0 15-6.714843 15-15v-25.230469c0-8.285156-6.714843-15-15-15zm0 0" data-original="#000000" class="active-path" data-old_color="#000000" fill="##49505"/><path d="m223.050781 60.789062c-8.285156 0-15 6.714844-15 15v25.230469c0 8.285157 6.714844 15 15 15 8.285157 0 15-6.714843 15-15v-25.230469c0-8.285156-6.714843-15-15-15zm0 0" data-original="#000000" class="active-path" data-old_color="#000000" fill="##49505"/><path d="m160.917969 146.265625c-8.285157 0-15 6.714844-15 15v25.234375c0 8.28125 6.714843 15 15 15 8.285156 0 15-6.71875 15-15v-25.234375c0-8.285156-6.714844-15-15-15zm0 0" data-original="#000000" class="active-path" data-old_color="#000000" fill="##49505"/><path d="m98.917969 146.265625c-8.285157 0-15 6.714844-15 15v25.234375c0 8.28125 6.714843 15 15 15 8.285156 0 15-6.71875 15-15v-25.234375c0-8.285156-6.714844-15-15-15zm0 0" data-original="#000000" class="active-path" data-old_color="#000000" fill="##49505"/><path d="m222.917969 146.265625c-8.285157 0-15 6.714844-15 15v25.234375c0 8.28125 6.714843 15 15 15 8.285156 0 15-6.71875 15-15v-25.234375c0-8.285156-6.714844-15-15-15zm0 0" data-original="#000000" class="active-path" data-old_color="#000000" fill="##49505"/><path d="m160.917969 231.140625c-8.285157 0-15 6.714844-15 15v25.230469c0 8.285156 6.714843 15 15 15 8.285156 0 15-6.714844 15-15v-25.230469c0-8.285156-6.714844-15-15-15zm0 0" data-original="#000000" class="active-path" data-old_color="#000000" fill="##49505"/><path d="m98.917969 231.140625c-8.285157 0-15 6.714844-15 15v25.230469c0 8.285156 6.714843 15 15 15 8.285156 0 15-6.714844 15-15v-25.230469c0-8.285156-6.714844-15-15-15zm0 0" data-original="#000000" class="active-path" data-old_color="#000000" fill="##49505"/><path d="m222.917969 231.140625c-8.285157 0-15 6.714844-15 15v25.230469c0 8.285156 6.714843 15 15 15 8.285156 0 15-6.714844 15-15v-25.230469c0-8.285156-6.714844-15-15-15zm0 0" data-original="#000000" class="active-path" data-old_color="#000000" fill="##49505"/><path d="m160.785156 316.617188c-8.28125 0-15 6.714843-15 15v25.234374c0 8.28125 6.71875 15 15 15 8.285156 0 15-6.71875 15-15v-25.234374c0-8.285157-6.714844-15-15-15zm0 0" data-original="#000000" class="active-path" data-old_color="#000000" fill="##49505"/><path d="m98.785156 316.617188c-8.28125 0-15 6.714843-15 15v25.234374c0 8.28125 6.71875 15 15 15 8.285156 0 15-6.71875 15-15v-25.234374c0-8.285157-6.714844-15-15-15zm0 0" data-original="#000000" class="active-path" data-old_color="#000000" fill="##49505"/><path d="m222.785156 316.617188c-8.28125 0-15 6.714843-15 15v25.234374c0 8.28125 6.71875 15 15 15 8.285156 0 15-6.71875 15-15v-25.234374c0-8.285157-6.714844-15-15-15zm0 0" data-original="#000000" class="active-path" data-old_color="#000000" fill="##49505"/><path d="m412.6875 231.140625c-8.285156 0-15 6.714844-15 15v25.230469c0 8.285156 6.714844 15 15 15s15-6.714844 15-15v-25.230469c0-8.285156-6.714844-15-15-15zm0 0" data-original="#000000" class="active-path" data-old_color="#000000" fill="##49505"/><path d="m350.6875 231.140625c-8.285156 0-15 6.714844-15 15v25.230469c0 8.285156 6.714844 15 15 15s15-6.714844 15-15v-25.230469c0-8.285156-6.714844-15-15-15zm0 0" data-original="#000000" class="active-path" data-old_color="#000000" fill="##49505"/><path d="m412.554688 316.617188c-8.28125 0-15 6.714843-15 15v25.234374c0 8.28125 6.71875 15 15 15 8.285156 0 15-6.71875 15-15v-25.234374c0-8.285157-6.714844-15-15-15zm0 0" data-original="#000000" class="active-path" data-old_color="#000000" fill="##49505"/><path d="m350.554688 316.617188c-8.28125 0-15 6.714843-15 15v25.234374c0 8.28125 6.71875 15 15 15 8.285156 0 15-6.71875 15-15v-25.234374c0-8.285157-6.714844-15-15-15zm0 0" data-original="#000000" class="active-path" data-old_color="#000000" fill="##49505"/></g> </svg>
