<?xml version="1.0" encoding="UTF-8" standalone="no"?>
<!-- Created with Inkscape (http://www.inkscape.org/) -->

<svg
   xmlns:dc="http://purl.org/dc/elements/1.1/"
   xmlns:cc="http://creativecommons.org/ns#"
   xmlns:rdf="http://www.w3.org/1999/02/22-rdf-syntax-ns#"
   xmlns:svg="http://www.w3.org/2000/svg"
   xmlns="http://www.w3.org/2000/svg"
   xmlns:sodipodi="http://sodipodi.sourceforge.net/DTD/sodipodi-0.dtd"
   xmlns:inkscape="http://www.inkscape.org/namespaces/inkscape"
   width="51.812672mm"
   height="51.812672mm"
   viewBox="0 0 51.812672 51.812672"
   version="1.1"
   id="svg8"
   inkscape:version="0.92.3 (2405546, 2018-03-11)"
   sodipodi:docname="logo.svg">
  <defs
     id="defs2" />
  <sodipodi:namedview
     id="base"
     pagecolor="#ffffff"
     bordercolor="#666666"
     borderopacity="1.0"
     inkscape:pageopacity="0.0"
     inkscape:pageshadow="2"
     inkscape:zoom="1.01"
     inkscape:cx="104.05765"
     inkscape:cy="-42.916895"
     inkscape:document-units="mm"
     inkscape:current-layer="g3809"
     showgrid="false"
     fit-margin-top="0"
     fit-margin-left="0"
     fit-margin-right="0"
     fit-margin-bottom="0"
     showguides="false"
     inkscape:window-width="1085"
     inkscape:window-height="637"
     inkscape:window-x="726"
     inkscape:window-y="385"
     inkscape:window-maximized="0" />
  <metadata
     id="metadata5">
    <rdf:RDF>
      <cc:Work
         rdf:about="">
        <dc:format>image/svg+xml</dc:format>
        <dc:type
           rdf:resource="http://purl.org/dc/dcmitype/StillImage" />
        <dc:title></dc:title>
      </cc:Work>
    </rdf:RDF>
  </metadata>
  <g
     inkscape:label="Layer 1"
     inkscape:groupmode="layer"
     id="layer1"
     transform="translate(-59.30048,-209.10557)">
    <g
       id="g3809"
       transform="matrix(0.26458333,0,0,0.26458333,-11.777523,200.81206)">
      <g
         id="Logo_1_"
         transform="translate(284.97879,17.142857)">
	<g
   id="Shape_2"
   style="fill:#ee3840;fill-opacity:1">
		<g
   id="g3762"
   style="fill:#ee3840;fill-opacity:1">
			<path
   id="path3760"
   d="m 157.1,76.4 v -2.6 c -2.6,6.1 -7.6,9.4 -13.1,12.1 -1.3,0.6 -2.6,1.2 -3.9,1.7 -38.8,16.4 -77.6,32.8 -116.4,49.2 -6.2,2.6 -9.3,7.3 -9.3,14 0,17.4 0,34.8 0,52.1 0,0.5 0,1.1 0,1.6 0.2,4.4 3.4,6.5 7.6,5.1 0.7,-0.2 1.3,-0.5 2,-0.8 34.8,-14.7 69.5,-29.4 104.3,-44.2 6.8,-2.9 13.7,-5.8 20.2,-9.3 6,-3.2 8.8,-8.6 8.7,-15.7 -0.2,-20.9 -0.1,-42 -0.1,-63.2 z"
   inkscape:connector-curvature="0"
   style="clip-rule:evenodd;fill:#ee3840;fill-rule:evenodd;fill-opacity:1" />

		</g>

	</g>

	<g
   id="Shape_1">
		<g
   id="g3767"
   style="fill:#ee3840;fill-opacity:1">
			<path
   id="path3765"
   d="m 137.9,65.3 c -2,-1.7 -4.3,-3.3 -6.7,-4.3 -8.9,-3.9 -17.9,-7.7 -26.9,-11.5 -27,-11.5 -54,-22.9 -81,-34.4 -5.4,-2.3 -8.9,-0.1 -8.9,5.7 0,18 -0.1,36 0,54 0,5.7 2.8,10.1 7.9,12.4 13.8,6.1 27.8,11.8 41.8,17.7 22.4,-9.3 44.6,-18.4 66.7,-27.7 2.7,-1.1 5.1,-2.9 7.3,-4.9 2.3,-2.1 2.2,-4.8 -0.2,-7 z"
   inkscape:connector-curvature="0"
   style="clip-rule:evenodd;fill-rule:evenodd;fill:#ee3840;fill-opacity:1" />

		</g>

	</g>

</g>
    </g>
  </g>
</svg>
