<?xml version="1.0"?>
<svg xmlns="http://www.w3.org/2000/svg" xmlns:xlink="http://www.w3.org/1999/xlink" version="1.1" id="Capa_1" x="0px" y="0px" viewBox="0 0 512.003 512.003" style="enable-background:new 0 0 512.003 512.003;" xml:space="preserve" width="512px" height="512px" class=""><g><g>
	<g>
		<path d="M510.751,491.004l-65.635-150.481c-0.049-0.113-0.111-0.216-0.163-0.328c-0.747-1.606-1.654-2.876-2.731-4.008    c-0.086-0.09-0.16-0.186-0.248-0.275l-80.362-80.362c45.285-41.972,95.433-97.767,126.151-150.828    c26.505-45.781,31.29-77.647,14.224-94.714C484.92-7.058,453.053-2.271,407.274,24.233    c-53.032,30.703-108.819,80.827-150.828,126.152c-4.008-4.008-128.403-128.402-128.403-128.402    c-29.308-29.31-76.747-29.312-106.057,0c-29.31,29.309-29.313,76.746,0,106.058c4.66,4.66,138.375,138.376,143.398,143.398    c-8.595,15.665-14.583,29.612-17.823,41.575c-0.522,1.929-0.952,3.798-1.333,5.636c-26.139-8.755-56.177-2.759-76.957,18.021    c-20.876,20.876-34.418,47.548-39.162,77.131c-4.734,29.526-0.251,59.102,12.964,85.532c2.023,4.046,5.232,12.647,15.589,12.647    c8.287,0,15.002-6.722,15.002-15c0-16.245,12.647-30.165,28.193-31.031c24.547-1.368,41.356-0.294,61.477-13.463    c29.133-19.078,40.666-54.9,30.019-86.702c1.833-0.38,3.708-0.824,5.631-1.345c11.963-3.24,25.91-9.227,41.575-17.823    l95.357,95.358c1.271,1.271,2.775,2.279,4.285,2.981c0.11,0.051,0.212,0.112,0.324,0.161l150.482,65.635    c5.664,2.47,12.248,1.212,16.603-3.142C511.97,503.245,513.216,496.658,510.751,491.004z M422.302,50.194    c35.81-20.732,55.231-22.214,58.473-18.973c1.991,1.991,4.605,17.749-18.973,58.473c-9.908,17.114-22.67,35.579-37.644,54.605    l-56.461-56.461C386.723,72.864,405.19,60.102,422.302,50.194z M344.444,107.007l60.546,60.546    c-6.404,7.438-13.1,14.912-20.047,22.376l-62.875-62.875C329.533,120.107,337.006,113.411,344.444,107.007z M74.893,138.526    l-31.698-31.698c-17.586-17.585-17.588-46.047,0-63.635c17.586-17.586,46.047-17.587,63.635,0l31.698,31.698L74.893,138.526z     M117.402,180.863L96.19,159.652l63.549-63.549l21.211,21.211L117.402,180.863z M138.528,202.16l63.635-63.635l34.243,34.243    c-21.204,24.543-40.088,49.27-55.064,72.205L138.528,202.16z M146.903,427.387c-12.328,8.068-21.266,7.191-46.715,8.609    c-15.317,0.853-29.601,7.717-40.237,19.332c-5.897-34.913,5.008-71.926,30.531-97.449c17.544-17.544,46.091-17.545,63.635,0    C174.155,377.919,170.945,411.642,146.903,427.387z M230.623,317.801c-37.546,21.419-53.106,20.475-55.264,18.901    c-0.002-0.002-0.005-0.005-0.007-0.007c-8.372-11.382,28.172-91.855,125.124-188.808l63.635,63.635    C324.543,251.089,279.205,289.12,230.623,317.801z M267.022,330.656c22.936-14.977,47.663-33.859,72.206-55.064l70.929,70.929    l-63.635,63.635L267.022,330.656z M372.685,426.414l53.731-53.731l41.565,95.296L372.685,426.414z" data-original="#000000" class="active-path" data-old_color="#000000" fill="##49505"/>
	</g>
</g></g> </svg>
