<?xml version="1.0"?>
<svg xmlns="http://www.w3.org/2000/svg" xmlns:xlink="http://www.w3.org/1999/xlink" version="1.1" id="Capa_1" x="0px" y="0px" viewBox="0 0 330 330" style="enable-background:new 0 0 330 330;" xml:space="preserve" width="512px" height="512px" class=""><g><g>
	<path d="M165,105c-33.084,0-60,26.916-60,60s26.916,60,60,60s60-26.916,60-60S198.084,105,165,105z M165,195   c-16.542,0-30-13.458-30-30s13.458-30,30-30s30,13.458,30,30S181.542,195,165,195z" data-original="#000000" class="active-path" data-old_color="#000000" fill="##49505"/>
	<path d="M317.941,120.291l-30.35-6.069l17.168-25.754c3.967-5.949,3.182-13.871-1.874-18.927L260.46,27.114   c-5.054-5.056-12.977-5.841-18.927-1.874l-25.754,17.169l-6.07-30.351C208.307,5.047,202.15,0,195,0h-60   c-7.15,0-13.307,5.047-14.709,12.059l-6.07,30.351L88.468,25.24c-5.947-3.966-13.87-3.183-18.927,1.874L27.114,69.541   c-5.057,5.056-5.841,12.978-1.874,18.927l17.169,25.754l-30.351,6.069C5.047,121.693,0,127.85,0,135v60   c0,7.15,5.047,13.307,12.059,14.709l30.351,6.069L25.24,241.532c-3.967,5.949-3.183,13.871,1.874,18.927l42.427,42.427   c5.056,5.056,12.978,5.841,18.927,1.874l25.753-17.169l6.07,30.351C121.693,324.953,127.85,330,135,330h60   c7.15,0,13.307-5.047,14.709-12.059l6.07-30.351l25.754,17.169c5.95,3.966,13.872,3.183,18.927-1.874l42.426-42.427   c5.056-5.056,5.841-12.978,1.874-18.927l-17.168-25.754l30.35-6.069C324.953,208.307,330,202.15,330,195v-60   C330,127.85,324.953,121.693,317.941,120.291z M300,182.703l-40.255,8.051c-4.907,0.981-9.002,4.346-10.917,8.969   c-1.915,4.623-1.398,9.897,1.378,14.061l22.771,34.158l-25.035,25.036l-34.159-22.772c-4.162-2.776-9.436-3.292-14.061-1.378   c-4.623,1.915-7.987,6.01-8.969,10.916L182.703,300h-35.406l-8.051-40.257c-0.982-4.906-4.346-9.001-8.969-10.916   c-4.624-1.916-9.897-1.398-14.061,1.378l-34.158,22.772l-25.036-25.036l22.772-34.158c2.776-4.163,3.293-9.437,1.378-14.061   c-1.915-4.623-6.01-7.987-10.917-8.969L30,182.703v-35.406l40.256-8.051c4.907-0.981,9.002-4.346,10.917-8.969   c1.915-4.624,1.398-9.897-1.378-14.061L57.022,82.059l25.036-25.036l34.158,22.772c4.164,2.776,9.438,3.293,14.061,1.378   c4.623-1.915,7.987-6.01,8.969-10.916L147.297,30h35.406l8.051,40.257c0.982,4.906,4.346,9.001,8.969,10.916   c4.621,1.915,9.897,1.398,14.061-1.378l34.159-22.772l25.035,25.036l-22.771,34.158c-2.776,4.163-3.293,9.438-1.378,14.061   c1.915,4.623,6.01,7.987,10.917,8.969L300,147.297V182.703z" data-original="#000000" class="active-path" data-old_color="#000000" fill="##49505"/>
</g></g> </svg>
