<svg height="512pt" viewBox="0 0 512 512.19778" width="512pt" xmlns="http://www.w3.org/2000/svg"><g fill-rule="evenodd"><path d="m353.203125 52.964844h35.308594c9.738281.03125 17.628906 7.917968 17.65625 17.65625v423.722656c-.027344 9.738281-7.917969 17.628906-17.65625 17.65625h-317.792969c-9.738281-.027344-17.625-7.917969-17.65625-17.65625v-35.308594zm0 0" fill="#a9b0bb"/><path d="m353.203125 17.65625v423.722656c-.03125 9.738282-7.917969 17.625-17.65625 17.65625h-317.792969c-9.738281-.03125-17.625-7.917968-17.6562498-17.65625v-353.101562l88.2773438-88.277344h247.171875c9.738281.0273438 17.625 7.917969 17.65625 17.65625zm0 0" fill="#e4e8eb"/><path d="m88.375 0v70.621094c-.03125 9.738281-7.917969 17.625-17.65625 17.65625h-70.6210938zm0 0" fill="#5e8faa"/><path d="m512.097656 388.414062c.039063 50.042969-30.078125 95.179688-76.304687 114.347657-46.226563 19.167969-99.449219 8.59375-134.835938-26.792969-35.382812-35.386719-45.960937-88.609375-26.792969-134.835938 19.171876-46.222656 64.304688-76.34375 114.347657-76.304687 5.90625.007813 11.804687.417969 17.65625 1.234375 60.796875 8.816406 105.90625 60.921875 105.929687 122.351562zm0 0" fill="#5e9cea"/><g fill="#365972"><path d="m300.238281 158.898438h-247.175781c-4.875 0-8.824219-3.953126-8.824219-8.828126s3.949219-8.828124 8.824219-8.828124h247.175781c4.875 0 8.824219 3.953124 8.824219 8.828124s-3.949219 8.828126-8.824219 8.828126zm0 0"/><path d="m229.617188 335.449219h-176.554688c-4.875 0-8.824219-3.953125-8.824219-8.828125s3.949219-8.828125 8.824219-8.828125h176.554688c4.875 0 8.828124 3.953125 8.828124 8.828125s-3.953124 8.828125-8.828124 8.828125zm0 0"/><path d="m300.238281 203.035156h-44.140625c-4.875 0-8.828125-3.953125-8.828125-8.828125s3.953125-8.828125 8.828125-8.828125h44.140625c4.875 0 8.824219 3.953125 8.824219 8.828125s-3.949219 8.828125-8.824219 8.828125zm0 0"/><path d="m211.960938 203.035156h-158.898438c-4.875 0-8.824219-3.953125-8.824219-8.828125s3.949219-8.828125 8.824219-8.828125h158.898438c4.875 0 8.828124 3.953125 8.828124 8.828125s-3.953124 8.828125-8.828124 8.828125zm0 0"/><path d="m158.996094 379.585938h-8.828125c-4.875 0-8.828125-3.953126-8.828125-8.828126s3.953125-8.828124 8.828125-8.828124h8.828125c4.875 0 8.828125 3.953124 8.828125 8.828124s-3.953125 8.828126-8.828125 8.828126zm0 0"/><path d="m106.03125 379.585938h-52.96875c-4.875 0-8.824219-3.953126-8.824219-8.828126s3.949219-8.828124 8.824219-8.828124h52.96875c4.875 0 8.828125 3.953124 8.828125 8.828124s-3.953125 8.828126-8.828125 8.828126zm0 0"/><path d="m97.203125 247.171875h-44.140625c-4.875 0-8.824219-3.953125-8.824219-8.828125s3.949219-8.828125 8.824219-8.828125h44.140625c4.875 0 8.828125 3.953125 8.828125 8.828125s-3.953125 8.828125-8.828125 8.828125zm0 0"/><path d="m300.238281 247.171875h-158.898437c-4.875 0-8.828125-3.953125-8.828125-8.828125s3.953125-8.828125 8.828125-8.828125h158.898437c4.875 0 8.824219 3.953125 8.824219 8.828125s-3.949219 8.828125-8.824219 8.828125zm0 0"/><path d="m79.546875 291.308594h-26.484375c-4.875 0-8.824219-3.949219-8.824219-8.824219 0-4.878906 3.949219-8.828125 8.824219-8.828125h26.484375c4.875 0 8.828125 3.949219 8.828125 8.828125 0 4.875-3.953125 8.824219-8.828125 8.824219zm0 0"/><path d="m264.925781 291.308594h-141.242187c-4.875 0-8.824219-3.949219-8.824219-8.824219 0-4.878906 3.949219-8.828125 8.824219-8.828125h141.242187c4.875 0 8.828125 3.949219 8.828125 8.828125 0 4.875-3.953125 8.824219-8.828125 8.824219zm0 0"/></g><path d="m450.304688 397.242188c-4.875 0-8.828126 3.953124-8.828126 8.828124v26.480469c0 4.875-3.949218 8.828125-8.824218 8.828125h-88.277344c-4.875 0-8.828125-3.953125-8.828125-8.828125v-26.480469c0-4.875-3.953125-8.828124-8.828125-8.828124s-8.828125 3.953124-8.828125 8.828124v26.480469c0 14.628907 11.859375 26.484375 26.484375 26.484375h88.277344c14.625 0 26.480468-11.855468 26.480468-26.484375v-26.480469c0-4.875-3.953124-8.828124-8.828124-8.828124zm0 0" fill="#f4f6f8"/><path d="m377.097656 341.6875 2.585938-2.585938v66.96875c0 4.875 3.953125 8.828126 8.828125 8.828126s8.828125-3.953126 8.828125-8.828126v-66.96875l2.585937 2.585938c3.464844 3.347656 8.96875 3.300781 12.375-.105469s3.453125-8.910156.109375-12.375l-17.65625-17.65625c-.078125-.078125-.183594-.105469-.265625-.175781-.753906-.738281-1.632812-1.335938-2.59375-1.765625-.070312 0-.152343 0-.230469-.050781-.894531-.335938-1.835937-.519532-2.789062-.550782-.300781 0-.582031 0-.882812.046876-.75.050781-1.488282.195312-2.199219.433593-.300781.082031-.59375.183594-.882813.308594-.984375.414063-1.882812 1.015625-2.648437 1.765625l-17.652344 17.652344c-3.347656 3.464844-3.300781 8.972656.105469 12.375 3.40625 3.40625 8.910156 3.453125 12.375.109375zm0 0" fill="#f4f6f8"/><path d="m79.546875 459.035156v35.308594c.03125 9.738281 7.917969 17.628906 17.65625 17.65625h-26.484375c-9.738281-.027344-17.625-7.917969-17.65625-17.65625v-35.308594zm0 0" fill="#848f9e"/><path d="m88.375 0v26.484375l-61.792969 61.792969h-26.4843748zm0 0" fill="#457393"/><path d="m44.238281 459.035156h-26.484375c-9.738281-.03125-17.625-7.917968-17.6562498-17.65625v-353.101562h26.4843748v353.101562c.027344 9.738282 7.917969 17.625 17.65625 17.65625zm0 0" fill="#cad0d7"/><path d="m114.859375 0-26.484375 26.484375v-26.484375zm0 0" fill="#cad0d7"/><path d="m401.402344 511.382812c-4.238282.351563-8.5625.617188-12.890625.617188-68.253907 0-123.585938-55.332031-123.585938-123.585938 0-68.253906 55.332031-123.585937 123.585938-123.585937 4.160156-.035156 8.320312.203125 12.449219.707031-7.78125.703125-15.46875 2.179688-22.953126 4.414063-56.628906 16.894531-93.375 71.523437-87.671874 130.34375 5.699218 58.824219 52.242187 105.378906 111.066406 111.089843zm0 0" fill="#4a88da"/></g></svg>